<mxfile host="app.diagrams.net" agent="Mozilla/5.0 (Windows NT 10.0; Win64; x64) AppleWebKit/537.36 (KHTML, like Gecko) Chrome/134.0.0.0 Safari/537.36" version="26.1.3">
  <diagram name="PÃ¡gina-1" id="fyxiueFnz8cvjS0PO9cI">
    <mxGraphModel dx="2843" dy="780" grid="1" gridSize="10" guides="1" tooltips="1" connect="1" arrows="1" fold="1" page="1" pageScale="1" pageWidth="1169" pageHeight="827" math="0" shadow="0">
      <root>
        <mxCell id="0" />
        <mxCell id="1" parent="0" />
        <mxCell id="5yZfUiXnxTYh2vqGzjWd-6" value="PetClinic" style="whiteSpace=wrap;html=1;aspect=fixed;labelBackgroundColor=none;fillColor=#FAE5C7;strokeColor=#0F8B8D;fontColor=#143642;" vertex="1" parent="1">
          <mxGeometry x="315" y="320" width="170" height="170" as="geometry" />
        </mxCell>
        <mxCell id="5yZfUiXnxTYh2vqGzjWd-7" value="Spring Boot" style="rounded=1;whiteSpace=wrap;html=1;labelBackgroundColor=none;fontStyle=2;fillColor=#FAE5C7;strokeColor=#0F8B8D;fontColor=#143642;" vertex="1" parent="1">
          <mxGeometry x="340" y="20" width="120" height="60" as="geometry" />
        </mxCell>
        <mxCell id="5yZfUiXnxTYh2vqGzjWd-9" value="" style="endArrow=classic;html=1;rounded=0;labelBackgroundColor=none;fontColor=default;strokeColor=#A8201A;" edge="1" parent="1">
          <mxGeometry width="50" height="50" relative="1" as="geometry">
            <mxPoint x="360" y="170" as="sourcePoint" />
            <mxPoint x="360" y="80" as="targetPoint" />
          </mxGeometry>
        </mxCell>
        <mxCell id="5yZfUiXnxTYh2vqGzjWd-11" value="" style="endArrow=none;html=1;rounded=0;labelBackgroundColor=none;fontColor=default;strokeColor=#A8201A;" edge="1" parent="1">
          <mxGeometry width="50" height="50" relative="1" as="geometry">
            <mxPoint x="360" y="249.99923076923073" as="sourcePoint" />
            <mxPoint x="360" y="320" as="targetPoint" />
            <Array as="points" />
          </mxGeometry>
        </mxCell>
        <mxCell id="5yZfUiXnxTYh2vqGzjWd-13" value="" style="endArrow=classic;html=1;rounded=0;labelBackgroundColor=none;fontColor=default;strokeColor=#A8201A;" edge="1" parent="1">
          <mxGeometry width="50" height="50" relative="1" as="geometry">
            <mxPoint x="440" y="240" as="sourcePoint" />
            <mxPoint x="440" y="320" as="targetPoint" />
          </mxGeometry>
        </mxCell>
        <mxCell id="5yZfUiXnxTYh2vqGzjWd-14" value="" style="endArrow=none;html=1;rounded=0;labelBackgroundColor=none;fontColor=default;strokeColor=#A8201A;" edge="1" parent="1">
          <mxGeometry width="50" height="50" relative="1" as="geometry">
            <mxPoint x="439" y="160" as="sourcePoint" />
            <mxPoint x="439" y="80" as="targetPoint" />
          </mxGeometry>
        </mxCell>
        <mxCell id="5yZfUiXnxTYh2vqGzjWd-15" value="Spring MVC" style="rounded=1;whiteSpace=wrap;html=1;labelBackgroundColor=none;fillColor=#FAE5C7;strokeColor=#0F8B8D;fontColor=#143642;" vertex="1" parent="1">
          <mxGeometry x="640" y="120" width="120" height="60" as="geometry" />
        </mxCell>
        <mxCell id="5yZfUiXnxTYh2vqGzjWd-16" value="Banco de dados" style="rounded=1;whiteSpace=wrap;html=1;labelBackgroundColor=none;fillColor=#FAE5C7;strokeColor=#0F8B8D;fontColor=#143642;" vertex="1" parent="1">
          <mxGeometry x="80" y="120" width="120" height="60" as="geometry" />
        </mxCell>
        <mxCell id="5yZfUiXnxTYh2vqGzjWd-17" value="Spring Data JPA" style="rounded=1;whiteSpace=wrap;html=1;labelBackgroundColor=none;fillColor=#FAE5C7;strokeColor=#0F8B8D;fontColor=#143642;" vertex="1" parent="1">
          <mxGeometry x="680" y="700" width="120" height="60" as="geometry" />
        </mxCell>
        <mxCell id="5yZfUiXnxTYh2vqGzjWd-18" value="Spring Security&amp;nbsp;" style="rounded=1;whiteSpace=wrap;html=1;labelBackgroundColor=none;fillColor=#FAE5C7;strokeColor=#0F8B8D;fontColor=#143642;" vertex="1" parent="1">
          <mxGeometry x="-20" y="700" width="120" height="60" as="geometry" />
        </mxCell>
        <mxCell id="5yZfUiXnxTYh2vqGzjWd-19" value="Thymeleaf" style="rounded=1;whiteSpace=wrap;html=1;labelBackgroundColor=none;fillColor=#FAE5C7;strokeColor=#0F8B8D;fontColor=#143642;" vertex="1" parent="1">
          <mxGeometry x="330" y="700" width="140" height="60" as="geometry" />
        </mxCell>
        <mxCell id="5yZfUiXnxTYh2vqGzjWd-20" value="" style="endArrow=classic;html=1;rounded=0;labelBackgroundColor=none;fontColor=default;strokeColor=#A8201A;exitX=0.853;exitY=-0.029;exitDx=0;exitDy=0;exitPerimeter=0;" edge="1" parent="1" source="5yZfUiXnxTYh2vqGzjWd-62">
          <mxGeometry width="50" height="50" relative="1" as="geometry">
            <mxPoint x="590" y="220" as="sourcePoint" />
            <mxPoint x="640" y="170" as="targetPoint" />
            <Array as="points">
              <mxPoint x="610" y="200" />
            </Array>
          </mxGeometry>
        </mxCell>
        <mxCell id="5yZfUiXnxTYh2vqGzjWd-21" value="" style="endArrow=none;html=1;rounded=0;labelBackgroundColor=none;fontColor=default;strokeColor=#A8201A;entryX=0;entryY=1;entryDx=0;entryDy=0;" edge="1" parent="1" target="5yZfUiXnxTYh2vqGzjWd-62">
          <mxGeometry width="50" height="50" relative="1" as="geometry">
            <mxPoint x="485" y="320" as="sourcePoint" />
            <mxPoint x="535" y="270" as="targetPoint" />
          </mxGeometry>
        </mxCell>
        <mxCell id="5yZfUiXnxTYh2vqGzjWd-23" value="" style="endArrow=classic;html=1;rounded=0;labelBackgroundColor=none;fontColor=default;strokeColor=#A8201A;exitX=0;exitY=1;exitDx=0;exitDy=0;entryX=1;entryY=0.5;entryDx=0;entryDy=0;" edge="1" parent="1" source="5yZfUiXnxTYh2vqGzjWd-63" target="5yZfUiXnxTYh2vqGzjWd-6">
          <mxGeometry width="50" height="50" relative="1" as="geometry">
            <mxPoint x="545" y="310" as="sourcePoint" />
            <mxPoint x="485" y="370" as="targetPoint" />
          </mxGeometry>
        </mxCell>
        <mxCell id="5yZfUiXnxTYh2vqGzjWd-24" value="" style="endArrow=none;html=1;rounded=0;labelBackgroundColor=none;fontColor=default;strokeColor=#A8201A;exitX=1;exitY=0;exitDx=0;exitDy=0;" edge="1" parent="1" source="5yZfUiXnxTYh2vqGzjWd-63">
          <mxGeometry width="50" height="50" relative="1" as="geometry">
            <mxPoint x="610" y="250" as="sourcePoint" />
            <mxPoint x="680" y="180" as="targetPoint" />
            <Array as="points" />
          </mxGeometry>
        </mxCell>
        <mxCell id="5yZfUiXnxTYh2vqGzjWd-25" value="" style="endArrow=classic;html=1;rounded=0;labelBackgroundColor=none;fontColor=default;strokeColor=#A8201A;" edge="1" parent="1">
          <mxGeometry width="50" height="50" relative="1" as="geometry">
            <mxPoint x="275" y="270" as="sourcePoint" />
            <mxPoint x="320" y="330" as="targetPoint" />
          </mxGeometry>
        </mxCell>
        <mxCell id="5yZfUiXnxTYh2vqGzjWd-26" value="" style="endArrow=none;html=1;rounded=0;labelBackgroundColor=none;fontColor=default;strokeColor=#A8201A;" edge="1" parent="1">
          <mxGeometry width="50" height="50" relative="1" as="geometry">
            <mxPoint x="200" y="175" as="sourcePoint" />
            <mxPoint x="230" y="210" as="targetPoint" />
          </mxGeometry>
        </mxCell>
        <mxCell id="5yZfUiXnxTYh2vqGzjWd-27" value="" style="endArrow=classic;html=1;rounded=0;labelBackgroundColor=none;fontColor=default;strokeColor=#A8201A;exitX=0.08;exitY=0.05;exitDx=0;exitDy=0;exitPerimeter=0;" edge="1" parent="1" source="5yZfUiXnxTYh2vqGzjWd-61">
          <mxGeometry width="50" height="50" relative="1" as="geometry">
            <mxPoint x="180" y="250" as="sourcePoint" />
            <mxPoint x="130" y="180" as="targetPoint" />
          </mxGeometry>
        </mxCell>
        <mxCell id="5yZfUiXnxTYh2vqGzjWd-28" value="" style="endArrow=none;html=1;rounded=0;labelBackgroundColor=none;fontColor=default;strokeColor=#A8201A;entryX=0.68;entryY=1;entryDx=0;entryDy=0;entryPerimeter=0;" edge="1" parent="1" target="5yZfUiXnxTYh2vqGzjWd-61">
          <mxGeometry width="50" height="50" relative="1" as="geometry">
            <mxPoint x="315" y="410" as="sourcePoint" />
            <mxPoint x="245" y="330" as="targetPoint" />
          </mxGeometry>
        </mxCell>
        <mxCell id="5yZfUiXnxTYh2vqGzjWd-29" value="" style="endArrow=classic;html=1;rounded=0;labelBackgroundColor=none;fontColor=default;strokeColor=#A8201A;exitX=1;exitY=0;exitDx=0;exitDy=0;" edge="1" parent="1" source="5yZfUiXnxTYh2vqGzjWd-65">
          <mxGeometry width="50" height="50" relative="1" as="geometry">
            <mxPoint x="250" y="520" as="sourcePoint" />
            <mxPoint x="315" y="460" as="targetPoint" />
          </mxGeometry>
        </mxCell>
        <mxCell id="5yZfUiXnxTYh2vqGzjWd-30" value="" style="endArrow=none;html=1;rounded=0;labelBackgroundColor=none;fontColor=default;strokeColor=#A8201A;entryX=0;entryY=0.75;entryDx=0;entryDy=0;" edge="1" parent="1" target="5yZfUiXnxTYh2vqGzjWd-65">
          <mxGeometry width="50" height="50" relative="1" as="geometry">
            <mxPoint x="50" y="700" as="sourcePoint" />
            <mxPoint x="170" y="580" as="targetPoint" />
          </mxGeometry>
        </mxCell>
        <mxCell id="5yZfUiXnxTYh2vqGzjWd-32" value="" style="endArrow=none;html=1;rounded=0;labelBackgroundColor=none;fontColor=default;strokeColor=#A8201A;exitX=1;exitY=0;exitDx=0;exitDy=0;" edge="1" parent="1" source="5yZfUiXnxTYh2vqGzjWd-70">
          <mxGeometry width="50" height="50" relative="1" as="geometry">
            <mxPoint x="290" y="540" as="sourcePoint" />
            <mxPoint x="340" y="490" as="targetPoint" />
          </mxGeometry>
        </mxCell>
        <mxCell id="5yZfUiXnxTYh2vqGzjWd-38" value="" style="endArrow=classic;html=1;rounded=0;labelBackgroundColor=none;fontColor=default;strokeColor=#A8201A;" edge="1" parent="1">
          <mxGeometry width="50" height="50" relative="1" as="geometry">
            <mxPoint x="360" y="570" as="sourcePoint" />
            <mxPoint x="360" y="490" as="targetPoint" />
          </mxGeometry>
        </mxCell>
        <mxCell id="5yZfUiXnxTYh2vqGzjWd-39" value="" style="endArrow=classic;html=1;rounded=0;entryX=1;entryY=0.367;entryDx=0;entryDy=0;labelBackgroundColor=none;fontColor=default;strokeColor=#A8201A;entryPerimeter=0;exitX=0;exitY=1;exitDx=0;exitDy=0;" edge="1" parent="1" source="5yZfUiXnxTYh2vqGzjWd-70" target="5yZfUiXnxTYh2vqGzjWd-18">
          <mxGeometry width="50" height="50" relative="1" as="geometry">
            <mxPoint x="180" y="640" as="sourcePoint" />
            <mxPoint x="110" y="720" as="targetPoint" />
          </mxGeometry>
        </mxCell>
        <mxCell id="5yZfUiXnxTYh2vqGzjWd-40" value="" style="endArrow=none;html=1;rounded=0;labelBackgroundColor=none;fontColor=default;strokeColor=#A8201A;" edge="1" parent="1">
          <mxGeometry width="50" height="50" relative="1" as="geometry">
            <mxPoint x="360" y="700" as="sourcePoint" />
            <mxPoint x="360" y="640" as="targetPoint" />
          </mxGeometry>
        </mxCell>
        <mxCell id="5yZfUiXnxTYh2vqGzjWd-41" value="" style="endArrow=classic;html=1;rounded=0;labelBackgroundColor=none;fontColor=default;strokeColor=#A8201A;exitX=0;exitY=0.5;exitDx=0;exitDy=0;" edge="1" parent="1" source="5yZfUiXnxTYh2vqGzjWd-77">
          <mxGeometry width="50" height="50" relative="1" as="geometry">
            <mxPoint x="590" y="480" as="sourcePoint" />
            <mxPoint x="485" y="480" as="targetPoint" />
          </mxGeometry>
        </mxCell>
        <mxCell id="5yZfUiXnxTYh2vqGzjWd-42" value="" style="endArrow=none;html=1;rounded=0;labelBackgroundColor=none;fontColor=default;strokeColor=#A8201A;entryX=1;entryY=1;entryDx=0;entryDy=0;" edge="1" parent="1" target="5yZfUiXnxTYh2vqGzjWd-77">
          <mxGeometry width="50" height="50" relative="1" as="geometry">
            <mxPoint x="710" y="700" as="sourcePoint" />
            <mxPoint x="630" y="620" as="targetPoint" />
          </mxGeometry>
        </mxCell>
        <mxCell id="5yZfUiXnxTYh2vqGzjWd-43" value="" style="endArrow=none;html=1;rounded=0;labelBackgroundColor=none;fontColor=default;strokeColor=#A8201A;entryX=0.25;entryY=0;entryDx=0;entryDy=0;" edge="1" parent="1" target="5yZfUiXnxTYh2vqGzjWd-78">
          <mxGeometry width="50" height="50" relative="1" as="geometry">
            <mxPoint x="460" y="490" as="sourcePoint" />
            <mxPoint x="540" y="590" as="targetPoint" />
          </mxGeometry>
        </mxCell>
        <mxCell id="5yZfUiXnxTYh2vqGzjWd-44" value="" style="endArrow=classic;html=1;rounded=0;entryX=0;entryY=1;entryDx=0;entryDy=0;labelBackgroundColor=none;fontColor=default;strokeColor=#A8201A;exitX=0.75;exitY=1;exitDx=0;exitDy=0;" edge="1" parent="1" source="5yZfUiXnxTYh2vqGzjWd-78" target="5yZfUiXnxTYh2vqGzjWd-17">
          <mxGeometry width="50" height="50" relative="1" as="geometry">
            <mxPoint x="590" y="660" as="sourcePoint" />
            <mxPoint x="640" y="715" as="targetPoint" />
          </mxGeometry>
        </mxCell>
        <mxCell id="5yZfUiXnxTYh2vqGzjWd-45" value="" style="endArrow=classic;html=1;rounded=0;labelBackgroundColor=none;strokeColor=#A8201A;fontColor=default;exitX=0;exitY=0.5;exitDx=0;exitDy=0;" edge="1" parent="1" source="5yZfUiXnxTYh2vqGzjWd-75">
          <mxGeometry width="50" height="50" relative="1" as="geometry">
            <mxPoint x="440" y="630" as="sourcePoint" />
            <mxPoint x="440" y="700" as="targetPoint" />
          </mxGeometry>
        </mxCell>
        <mxCell id="5yZfUiXnxTYh2vqGzjWd-46" value="" style="endArrow=none;html=1;rounded=0;labelBackgroundColor=none;strokeColor=#A8201A;fontColor=default;exitX=1;exitY=0.5;exitDx=0;exitDy=0;" edge="1" parent="1" source="5yZfUiXnxTYh2vqGzjWd-75">
          <mxGeometry width="50" height="50" relative="1" as="geometry">
            <mxPoint x="439.5" y="560" as="sourcePoint" />
            <mxPoint x="439.5" y="490" as="targetPoint" />
          </mxGeometry>
        </mxCell>
        <mxCell id="5yZfUiXnxTYh2vqGzjWd-49" value="Faz o boot da aplicaÃ§Ã£o" style="text;html=1;align=center;verticalAlign=middle;whiteSpace=wrap;rounded=0;rotation=90;labelBackgroundColor=none;fontColor=#143642;" vertex="1" parent="1">
          <mxGeometry x="410" y="180" width="60" height="30" as="geometry" />
        </mxCell>
        <mxCell id="5yZfUiXnxTYh2vqGzjWd-51" value="Request" style="text;html=1;align=center;verticalAlign=middle;whiteSpace=wrap;rounded=0;rotation=90;labelBackgroundColor=none;fontColor=#143642;" vertex="1" parent="1">
          <mxGeometry x="320" y="190" width="80" height="30" as="geometry" />
        </mxCell>
        <mxCell id="5yZfUiXnxTYh2vqGzjWd-53" value="Retorna os dados que forma solicitados&amp;nbsp;" style="text;html=1;align=center;verticalAlign=middle;whiteSpace=wrap;rounded=0;rotation=0;labelBackgroundColor=none;fontColor=#143642;" vertex="1" parent="1">
          <mxGeometry x="230" y="230" width="60" height="20" as="geometry" />
        </mxCell>
        <mxCell id="5yZfUiXnxTYh2vqGzjWd-61" value="Envia a requisiÃ§Ã£o" style="text;strokeColor=none;fillColor=none;align=left;verticalAlign=middle;spacingLeft=4;spacingRight=4;overflow=hidden;points=[[0,0.5],[1,0.5]];portConstraint=eastwest;rotatable=0;whiteSpace=wrap;html=1;fontColor=#143642;" vertex="1" parent="1">
          <mxGeometry x="120" y="280" width="100" height="60" as="geometry" />
        </mxCell>
        <mxCell id="5yZfUiXnxTYh2vqGzjWd-62" value="Envia o projeto" style="text;html=1;align=center;verticalAlign=middle;whiteSpace=wrap;rounded=0;fontColor=#143642;" vertex="1" parent="1">
          <mxGeometry x="525" y="222.5" width="75" height="35" as="geometry" />
        </mxCell>
        <mxCell id="5yZfUiXnxTYh2vqGzjWd-63" value="Arquitetura MVC" style="text;html=1;align=center;verticalAlign=middle;whiteSpace=wrap;rounded=0;fontColor=#143642;" vertex="1" parent="1">
          <mxGeometry x="610" y="320" width="60" height="30" as="geometry" />
        </mxCell>
        <mxCell id="5yZfUiXnxTYh2vqGzjWd-65" value="Retorna os dados de acesso criptografados" style="text;html=1;align=center;verticalAlign=middle;whiteSpace=wrap;rounded=0;fontColor=#143642;" vertex="1" parent="1">
          <mxGeometry x="170" y="530" width="60" height="30" as="geometry" />
        </mxCell>
        <mxCell id="5yZfUiXnxTYh2vqGzjWd-69" style="edgeStyle=orthogonalEdgeStyle;rounded=0;orthogonalLoop=1;jettySize=auto;html=1;exitX=0.5;exitY=1;exitDx=0;exitDy=0;strokeColor=#A8201A;fontColor=#143642;fillColor=#FAE5C7;" edge="1" parent="1" source="5yZfUiXnxTYh2vqGzjWd-65" target="5yZfUiXnxTYh2vqGzjWd-65">
          <mxGeometry relative="1" as="geometry" />
        </mxCell>
        <mxCell id="5yZfUiXnxTYh2vqGzjWd-70" value="Solicita um token" style="text;html=1;align=center;verticalAlign=middle;whiteSpace=wrap;rounded=0;fontColor=#143642;" vertex="1" parent="1">
          <mxGeometry x="160" y="690" width="60" height="30" as="geometry" />
        </mxCell>
        <mxCell id="5yZfUiXnxTYh2vqGzjWd-74" value="Renderiza informaÃ§Ãµes" style="text;html=1;align=center;verticalAlign=middle;whiteSpace=wrap;rounded=0;fontColor=#143642;rotation=270;" vertex="1" parent="1">
          <mxGeometry x="320" y="580" width="80" height="40" as="geometry" />
        </mxCell>
        <mxCell id="5yZfUiXnxTYh2vqGzjWd-75" value="Manda o contÃ©udo&amp;nbsp;" style="text;html=1;align=center;verticalAlign=middle;whiteSpace=wrap;rounded=0;fontColor=#143642;rotation=270;" vertex="1" parent="1">
          <mxGeometry x="410" y="580" width="60" height="30" as="geometry" />
        </mxCell>
        <mxCell id="5yZfUiXnxTYh2vqGzjWd-77" value="InformaÃ§Ãµes para consumo" style="text;html=1;align=center;verticalAlign=middle;whiteSpace=wrap;rounded=0;fontColor=#143642;" vertex="1" parent="1">
          <mxGeometry x="620" y="510" width="60" height="30" as="geometry" />
        </mxCell>
        <mxCell id="5yZfUiXnxTYh2vqGzjWd-78" value="Solicita o dado&amp;nbsp;" style="text;html=1;align=center;verticalAlign=middle;whiteSpace=wrap;rounded=0;fontColor=#143642;" vertex="1" parent="1">
          <mxGeometry x="525" y="600" width="60" height="30" as="geometry" />
        </mxCell>
      </root>
    </mxGraphModel>
  </diagram>
</mxfile>
